<svg version="1.2" xmlns="http://www.w3.org/2000/svg" viewBox="0 0 21 25" width="21" height="25">
	<style>
		tspan { white-space:pre } 
		.s0 { fill: #231f20 } 
	</style>
	<g id="Layer 1">
		<g id="&lt;Group&gt;">
			<path id="&lt;Compound Path&gt;" fill-rule="evenodd" class="s0" d="m19.64 23.61c-0.81 0.88-1.95 1.39-3.15 1.39h-12.04c-1.2 0-2.35-0.51-3.15-1.39-0.81-0.88-1.21-2.07-1.1-3.26l1.29-14.21c0.04-0.42 0.39-0.74 0.81-0.74h2.52c0.4-2.77 2.77-4.9 5.65-4.9 2.87 0 5.25 2.13 5.65 4.9h2.51c0.43 0 0.78 0.32 0.82 0.74l1.29 14.21c0.11 1.19-0.29 2.38-1.1 3.26zm-13.17-18.21h8c-0.38-1.86-2.03-3.27-4-3.27-1.97 0-3.62 1.41-4 3.27zm12.64 15.09l-1.22-13.46h-14.84l-1.23 13.46c-0.06 0.75 0.18 1.47 0.68 2.02 0.51 0.55 1.2 0.86 1.95 0.86h12.04c0.75 0 1.44-0.31 1.94-0.86 0.51-0.55 0.75-1.27 0.68-2.02z"/>
			<path id="&lt;Path&gt;" class="s0" d="m14.55 19.28h-8.17c-0.45 0-0.81 0.37-0.81 0.82 0 0.45 0.36 0.82 0.81 0.82h8.17c0.45 0 0.82-0.37 0.82-0.82 0-0.45-0.37-0.82-0.82-0.82z"/>
		</g>
	</g>
</svg>