<?xml version="1.0" encoding="UTF-8"?>
<svg id="Capa_1" xmlns="http://www.w3.org/2000/svg" version="1.1" viewBox="0 0 760.61 249.84">
  <!-- Generator: Adobe Illustrator 29.6.1, SVG Export Plug-In . SVG Version: 2.1.1 Build 9)  -->
  <defs>
    <style>
      .st0 {
        fill: #4e83bd;
      }

      .st1, .st2 {
        fill: #f7edea;
      }

      .st3, .st4 {
        fill: #005189;
      }

      .st4, .st2 {
        fill-rule: evenodd;
      }

      .st5 {
        fill: #22b2bd;
      }
    </style>
  </defs>
  <g>
    <g>
      <rect class="st3" x="367.11" y="-361.3" width="25.33" height="25.33" rx="-155.32" ry="-155.32"/>
      <rect class="st0" x="389.25" y="-383.45" width="25.33" height="25.33" rx="-166.39" ry="-166.39"/>
      <path class="st4" d="M436.63-356.3c0-2.76-2.24-5-5-5h-12.96c-2.76,0-5,2.24-5,5v12.96c0,.43.06.85.16,1.25v16.32c0,6.29-5.09,11.38-11.38,11.38h-45.54c-6.29,0-11.38-5.09-11.38-11.38v-45.54c0-6.29,5.09-11.38,11.38-11.38h14.94c.43.12.89.19,1.36.19h12.96c2.76,0,5-2.24,5-5v-12.96c0-2.76-2.24-5-5-5h-29.26c-18.86,0-34.15,15.29-34.15,34.15v45.54c0,18.86,15.29,34.15,34.15,34.15h45.54c18.86,0,34.15-15.29,34.15-34.15v-17.03c.02-.18.03-.36.03-.55v-12.96Z"/>
      <rect class="st5" x="411.33" y="-405.53" width="25.33" height="25.33" rx="-177.43" ry="-177.43"/>
    </g>
    <g>
      <path class="st3" d="M116.4-186.2v-59.33h16.09v59.33h-16.09ZM156.32-186.2v-34.03c0-3.52-1.11-6.39-3.32-8.6-2.21-2.21-5.08-3.32-8.6-3.32-2.29,0-4.34.49-6.14,1.47-1.8.98-3.21,2.38-4.24,4.18-1.03,1.8-1.54,3.89-1.54,6.27l-6.27-3.19c0-4.67,1-8.74,3.01-12.22,2.01-3.48,4.79-6.2,8.35-8.17,3.56-1.97,7.59-2.95,12.1-2.95s8.23,1.09,11.67,3.26c3.44,2.17,6.14,5,8.11,8.48,1.96,3.48,2.95,7.23,2.95,11.24v37.59h-16.09Z"/>
      <path class="st3" d="M208.41-184.97c-5.98,0-11.36-1.37-16.15-4.12-4.79-2.74-8.6-6.47-11.42-11.18-2.83-4.71-4.24-9.97-4.24-15.79s1.39-11.03,4.18-15.66c2.78-4.63,6.59-8.31,11.42-11.06,4.83-2.74,10.2-4.12,16.09-4.12s11.49,1.37,16.28,4.12c4.79,2.74,8.58,6.43,11.36,11.06,2.78,4.63,4.18,9.85,4.18,15.66s-1.39,11.08-4.18,15.79c-2.79,4.71-6.57,8.44-11.36,11.18-4.79,2.74-10.18,4.12-16.15,4.12ZM208.29-199.96c3.03,0,5.71-.68,8.05-2.03,2.33-1.35,4.13-3.23,5.4-5.65,1.27-2.41,1.9-5.18,1.9-8.29s-.66-5.85-1.97-8.23c-1.31-2.37-3.11-4.24-5.4-5.59-2.29-1.35-4.96-2.03-7.99-2.03s-5.57.68-7.86,2.03c-2.29,1.35-4.1,3.22-5.41,5.59-1.31,2.38-1.97,5.12-1.97,8.23s.65,5.88,1.97,8.29c1.31,2.42,3.11,4.3,5.41,5.65,2.29,1.35,4.91,2.03,7.86,2.03Z"/>
      <path class="st3" d="M263.07-186.2l-26.17-59.33h17.69l18.79,48.89h-8.72l18.92-48.89h17.08l-26.04,59.33h-11.55Z"/>
      <path class="st3" d="M326.21-184.97c-5.4,0-10.28-1.35-14.62-4.05-4.34-2.7-7.74-6.39-10.2-11.06-2.46-4.67-3.69-9.91-3.69-15.72s1.23-11.18,3.69-15.85c2.46-4.67,5.85-8.35,10.2-11.06,4.34-2.7,9.21-4.05,14.62-4.05,4.26,0,8.07.86,11.42,2.58,3.36,1.72,6.04,4.12,8.05,7.19,2.01,3.07,3.09,6.53,3.26,10.38v21.37c-.17,3.93-1.25,7.41-3.26,10.44-2.01,3.03-4.69,5.43-8.05,7.19-3.36,1.76-7.17,2.64-11.42,2.64ZM329.16-199.83c4.5,0,8.15-1.49,10.93-4.48,2.78-2.99,4.18-6.86,4.18-11.61,0-3.11-.64-5.88-1.9-8.29-1.27-2.42-3.03-4.3-5.28-5.65-2.25-1.35-4.89-2.03-7.92-2.03s-5.55.68-7.8,2.03c-2.25,1.35-4.01,3.24-5.28,5.65-1.27,2.42-1.9,5.18-1.9,8.29s.63,6,1.9,8.42c1.27,2.42,3.03,4.3,5.28,5.65,2.25,1.35,4.85,2.03,7.8,2.03ZM343.41-186.2v-15.97l2.58-14.5-2.58-14.25v-14.62h15.97v59.33h-15.97Z"/>
      <path class="st3" d="M366.26-161.38v-84.15h16.09v15.6l-2.7,14.37,2.58,14.37v39.8h-15.97ZM399.18-184.97c-4.26,0-8.11-.88-11.55-2.64s-6.18-4.16-8.23-7.19c-2.05-3.03-3.15-6.51-3.32-10.44v-21.01c.16-3.93,1.29-7.43,3.38-10.5,2.09-3.07,4.83-5.51,8.23-7.31,3.4-1.8,7.23-2.7,11.49-2.7,5.49,0,10.4,1.35,14.74,4.05,4.34,2.7,7.76,6.39,10.26,11.06,2.5,4.67,3.75,9.95,3.75,15.85s-1.25,11.06-3.75,15.72c-2.5,4.67-5.92,8.35-10.26,11.06-4.34,2.7-9.26,4.05-14.74,4.05ZM396.36-199.83c2.95,0,5.57-.68,7.86-2.03,2.29-1.35,4.07-3.23,5.34-5.65,1.27-2.41,1.9-5.22,1.9-8.42s-.64-5.88-1.9-8.29c-1.27-2.42-3.05-4.3-5.34-5.65-2.29-1.35-4.91-2.03-7.86-2.03s-5.45.68-7.74,2.03c-2.29,1.35-4.08,3.24-5.34,5.65-1.27,2.42-1.9,5.18-1.9,8.29s.63,6,1.9,8.42c1.27,2.42,3.03,4.3,5.28,5.65,2.25,1.35,4.85,2.03,7.8,2.03Z"/>
      <path class="st3" d="M460.85-184.97c-5.4,0-10.28-1.35-14.62-4.05-4.34-2.7-7.74-6.39-10.2-11.06-2.46-4.67-3.69-9.91-3.69-15.72s1.23-11.18,3.69-15.85c2.46-4.67,5.85-8.35,10.2-11.06,4.34-2.7,9.21-4.05,14.62-4.05,4.26,0,8.07.86,11.42,2.58,3.36,1.72,6.04,4.12,8.05,7.19,2.01,3.07,3.09,6.53,3.26,10.38v21.37c-.17,3.93-1.25,7.41-3.26,10.44-2.01,3.03-4.69,5.43-8.05,7.19-3.36,1.76-7.17,2.64-11.42,2.64ZM463.8-199.83c4.5,0,8.15-1.49,10.93-4.48,2.78-2.99,4.18-6.86,4.18-11.61,0-3.11-.64-5.88-1.9-8.29-1.27-2.42-3.03-4.3-5.28-5.65-2.25-1.35-4.89-2.03-7.92-2.03s-5.55.68-7.8,2.03c-2.25,1.35-4.01,3.24-5.28,5.65-1.27,2.42-1.9,5.18-1.9,8.29s.63,6,1.9,8.42c1.27,2.42,3.03,4.3,5.28,5.65,2.25,1.35,4.85,2.03,7.8,2.03ZM478.05-186.2v-15.97l2.58-14.5-2.58-14.25v-14.62h15.97v59.33h-15.97Z"/>
      <path class="st3" d="M498.19-231.4v-14.13h43.86v14.13h-43.86ZM512.07-186.2v-84.02h16.09v84.02h-16.09Z"/>
      <path class="st3" d="M572.76-184.97c-6.06,0-11.51-1.35-16.34-4.05-4.83-2.7-8.64-6.39-11.42-11.06-2.79-4.67-4.18-9.91-4.18-15.72s1.39-11.18,4.18-15.85c2.78-4.67,6.61-8.37,11.49-11.12,4.87-2.74,10.3-4.12,16.28-4.12,4.67,0,8.97.86,12.9,2.58,3.93,1.72,7.33,4.18,10.2,7.37l-10.32,10.44c-1.56-1.72-3.42-3.03-5.59-3.93-2.17-.9-4.57-1.35-7.19-1.35-2.95,0-5.59.68-7.92,2.03-2.33,1.35-4.18,3.19-5.53,5.53-1.35,2.33-2.03,5.1-2.03,8.29s.68,5.88,2.03,8.29c1.35,2.42,3.19,4.3,5.53,5.65,2.33,1.35,4.97,2.03,7.92,2.03,2.7,0,5.14-.47,7.31-1.41,2.17-.94,4.03-2.31,5.59-4.12l10.44,10.44c-3.03,3.28-6.51,5.77-10.44,7.49-3.93,1.72-8.23,2.58-12.9,2.58Z"/>
      <path class="st3" d="M600.27-186.2v-88.81h16.09v88.81h-16.09ZM640.2-186.2v-34.03c0-3.52-1.11-6.39-3.32-8.6-2.21-2.21-5.08-3.32-8.6-3.32-2.29,0-4.34.49-6.14,1.47-1.8.98-3.21,2.38-4.24,4.18-1.03,1.8-1.54,3.89-1.54,6.27l-6.27-3.19c0-4.67.98-8.74,2.95-12.22,1.97-3.48,4.69-6.2,8.17-8.17,3.48-1.97,7.47-2.95,11.98-2.95s8.5.98,11.98,2.95c3.48,1.97,6.2,4.67,8.17,8.11,1.96,3.44,2.95,7.41,2.95,11.92v37.59h-16.09Z"/>
    </g>
  </g>
  <g>
    <g>
      <rect class="st1" x="1275.39" y="-361.3" width="25.33" height="25.33" rx="-155.32" ry="-155.32"/>
      <rect class="st1" x="1297.54" y="-383.45" width="25.33" height="25.33" rx="-166.39" ry="-166.39"/>
      <path class="st2" d="M1344.91-356.3c0-2.76-2.24-5-5-5h-12.96c-2.76,0-5,2.24-5,5v12.96c0,.43.06.85.16,1.25v16.32c0,6.29-5.09,11.38-11.38,11.38h-45.54c-6.29,0-11.38-5.09-11.38-11.38v-45.54c0-6.29,5.09-11.38,11.38-11.38h14.94c.43.12.89.19,1.36.19h12.96c2.76,0,5-2.24,5-5v-12.96c0-2.76-2.24-5-5-5h-29.26c-18.86,0-34.15,15.29-34.15,34.15v45.54c0,18.86,15.29,34.15,34.15,34.15h45.54c18.86,0,34.15-15.29,34.15-34.15v-17.03c.02-.18.03-.36.03-.55v-12.96Z"/>
      <rect class="st1" x="1319.61" y="-405.53" width="25.33" height="25.33" rx="-177.43" ry="-177.43"/>
    </g>
    <g>
      <path class="st1" d="M1024.68-186.2v-59.33h16.09v59.33h-16.09ZM1064.6-186.2v-34.03c0-3.52-1.11-6.39-3.32-8.6-2.21-2.21-5.08-3.32-8.6-3.32-2.29,0-4.34.49-6.14,1.47-1.8.98-3.21,2.38-4.24,4.18-1.03,1.8-1.54,3.89-1.54,6.27l-6.27-3.19c0-4.67,1-8.74,3.01-12.22,2.01-3.48,4.79-6.2,8.35-8.17,3.56-1.97,7.59-2.95,12.1-2.95s8.23,1.09,11.67,3.26c3.44,2.17,6.14,5,8.11,8.48,1.96,3.48,2.95,7.23,2.95,11.24v37.59h-16.09Z"/>
      <path class="st1" d="M1116.69-184.97c-5.98,0-11.36-1.37-16.15-4.12-4.79-2.74-8.6-6.47-11.42-11.18-2.83-4.71-4.24-9.97-4.24-15.79s1.39-11.03,4.18-15.66c2.78-4.63,6.59-8.31,11.42-11.06,4.83-2.74,10.2-4.12,16.09-4.12s11.49,1.37,16.28,4.12c4.79,2.74,8.58,6.43,11.36,11.06,2.78,4.63,4.18,9.85,4.18,15.66s-1.39,11.08-4.18,15.79c-2.79,4.71-6.57,8.44-11.36,11.18-4.79,2.74-10.18,4.12-16.15,4.12ZM1116.57-199.96c3.03,0,5.71-.68,8.05-2.03,2.33-1.35,4.13-3.23,5.4-5.65,1.27-2.41,1.9-5.18,1.9-8.29s-.66-5.85-1.97-8.23c-1.31-2.37-3.11-4.24-5.4-5.59-2.29-1.35-4.96-2.03-7.99-2.03s-5.57.68-7.86,2.03c-2.29,1.35-4.1,3.22-5.41,5.59-1.31,2.38-1.97,5.12-1.97,8.23s.65,5.88,1.97,8.29c1.31,2.42,3.11,4.3,5.41,5.65,2.29,1.35,4.91,2.03,7.86,2.03Z"/>
      <path class="st1" d="M1171.35-186.2l-26.17-59.33h17.69l18.79,48.89h-8.72l18.92-48.89h17.08l-26.04,59.33h-11.55Z"/>
      <path class="st1" d="M1234.49-184.97c-5.4,0-10.28-1.35-14.62-4.05-4.34-2.7-7.74-6.39-10.2-11.06-2.46-4.67-3.69-9.91-3.69-15.72s1.23-11.18,3.69-15.85c2.46-4.67,5.85-8.35,10.2-11.06,4.34-2.7,9.21-4.05,14.62-4.05,4.26,0,8.07.86,11.42,2.58,3.36,1.72,6.04,4.12,8.05,7.19,2.01,3.07,3.09,6.53,3.26,10.38v21.37c-.17,3.93-1.25,7.41-3.26,10.44-2.01,3.03-4.69,5.43-8.05,7.19-3.36,1.76-7.17,2.64-11.42,2.64ZM1237.44-199.83c4.5,0,8.15-1.49,10.93-4.48,2.78-2.99,4.18-6.86,4.18-11.61,0-3.11-.64-5.88-1.9-8.29-1.27-2.42-3.03-4.3-5.28-5.65-2.25-1.35-4.89-2.03-7.92-2.03s-5.55.68-7.8,2.03c-2.25,1.35-4.01,3.24-5.28,5.65-1.27,2.42-1.9,5.18-1.9,8.29s.63,6,1.9,8.42c1.27,2.42,3.03,4.3,5.28,5.65,2.25,1.35,4.85,2.03,7.8,2.03ZM1251.69-186.2v-15.97l2.58-14.5-2.58-14.25v-14.62h15.97v59.33h-15.97Z"/>
      <path class="st1" d="M1274.54-161.38v-84.15h16.09v15.6l-2.7,14.37,2.58,14.37v39.8h-15.97ZM1307.46-184.97c-4.26,0-8.11-.88-11.55-2.64s-6.18-4.16-8.23-7.19c-2.05-3.03-3.15-6.51-3.32-10.44v-21.01c.16-3.93,1.29-7.43,3.38-10.5,2.09-3.07,4.83-5.51,8.23-7.31,3.4-1.8,7.23-2.7,11.49-2.7,5.49,0,10.4,1.35,14.74,4.05,4.34,2.7,7.76,6.39,10.26,11.06,2.5,4.67,3.75,9.95,3.75,15.85s-1.25,11.06-3.75,15.72c-2.5,4.67-5.92,8.35-10.26,11.06-4.34,2.7-9.26,4.05-14.74,4.05ZM1304.64-199.83c2.95,0,5.57-.68,7.86-2.03,2.29-1.35,4.07-3.23,5.34-5.65,1.27-2.41,1.9-5.22,1.9-8.42s-.64-5.88-1.9-8.29c-1.27-2.42-3.05-4.3-5.34-5.65-2.29-1.35-4.91-2.03-7.86-2.03s-5.45.68-7.74,2.03c-2.29,1.35-4.08,3.24-5.34,5.65-1.27,2.42-1.9,5.18-1.9,8.29s.63,6,1.9,8.42c1.27,2.42,3.03,4.3,5.28,5.65,2.25,1.35,4.85,2.03,7.8,2.03Z"/>
      <path class="st1" d="M1369.13-184.97c-5.4,0-10.28-1.35-14.62-4.05-4.34-2.7-7.74-6.39-10.2-11.06-2.46-4.67-3.69-9.91-3.69-15.72s1.23-11.18,3.69-15.85c2.46-4.67,5.85-8.35,10.2-11.06,4.34-2.7,9.21-4.05,14.62-4.05,4.26,0,8.07.86,11.42,2.58,3.36,1.72,6.04,4.12,8.05,7.19,2.01,3.07,3.09,6.53,3.26,10.38v21.37c-.17,3.93-1.25,7.41-3.26,10.44-2.01,3.03-4.69,5.43-8.05,7.19-3.36,1.76-7.17,2.64-11.42,2.64ZM1372.08-199.83c4.5,0,8.15-1.49,10.93-4.48,2.78-2.99,4.18-6.86,4.18-11.61,0-3.11-.64-5.88-1.9-8.29-1.27-2.42-3.03-4.3-5.28-5.65-2.25-1.35-4.89-2.03-7.92-2.03s-5.55.68-7.8,2.03c-2.25,1.35-4.01,3.24-5.28,5.65-1.27,2.42-1.9,5.18-1.9,8.29s.63,6,1.9,8.42c1.27,2.42,3.03,4.3,5.28,5.65,2.25,1.35,4.85,2.03,7.8,2.03ZM1386.33-186.2v-15.97l2.58-14.5-2.58-14.25v-14.62h15.97v59.33h-15.97Z"/>
      <path class="st1" d="M1406.47-231.4v-14.13h43.86v14.13h-43.86ZM1420.35-186.2v-84.02h16.09v84.02h-16.09Z"/>
      <path class="st1" d="M1481.04-184.97c-6.06,0-11.51-1.35-16.34-4.05-4.83-2.7-8.64-6.39-11.42-11.06-2.79-4.67-4.18-9.91-4.18-15.72s1.39-11.18,4.18-15.85c2.78-4.67,6.61-8.37,11.49-11.12,4.87-2.74,10.3-4.12,16.28-4.12,4.67,0,8.97.86,12.9,2.58,3.93,1.72,7.33,4.18,10.2,7.37l-10.32,10.44c-1.56-1.72-3.42-3.03-5.59-3.93-2.17-.9-4.57-1.35-7.19-1.35-2.95,0-5.59.68-7.92,2.03-2.33,1.35-4.18,3.19-5.53,5.53-1.35,2.33-2.03,5.1-2.03,8.29s.68,5.88,2.03,8.29c1.35,2.42,3.19,4.3,5.53,5.65,2.33,1.35,4.97,2.03,7.92,2.03,2.7,0,5.14-.47,7.31-1.41,2.17-.94,4.03-2.31,5.59-4.12l10.44,10.44c-3.03,3.28-6.51,5.77-10.44,7.49-3.93,1.72-8.23,2.58-12.9,2.58Z"/>
      <path class="st1" d="M1508.55-186.2v-88.81h16.09v88.81h-16.09ZM1548.48-186.2v-34.03c0-3.52-1.11-6.39-3.32-8.6-2.21-2.21-5.08-3.32-8.6-3.32-2.29,0-4.34.49-6.14,1.47-1.8.98-3.21,2.38-4.24,4.18-1.03,1.8-1.54,3.89-1.54,6.27l-6.27-3.19c0-4.67.98-8.74,2.95-12.22,1.97-3.48,4.69-6.2,8.17-8.17,3.48-1.97,7.47-2.95,11.98-2.95s8.5.98,11.98,2.95c3.48,1.97,6.2,4.67,8.17,8.11,1.96,3.44,2.95,7.41,2.95,11.92v37.59h-16.09Z"/>
    </g>
  </g>
  <g>
    <g>
      <rect class="st3" x="90.77" y="111.19" width="25.33" height="25.33" rx="5.52" ry="5.52"/>
      <rect class="st0" x="112.92" y="89.04" width="25.33" height="25.33" rx="5.52" ry="5.52"/>
      <path class="st4" d="M160.3,116.19c0-2.76-2.24-5-5-5h-12.96c-2.76,0-5,2.24-5,5v12.96c0,.43.06.85.16,1.25v16.32c0,6.29-5.09,11.38-11.38,11.38h-45.54c-6.29,0-11.38-5.09-11.38-11.38v-45.54c0-6.29,5.09-11.38,11.38-11.38h14.94c.43.12.89.19,1.36.19h12.96c2.76,0,5-2.24,5-5v-12.96c0-2.76-2.24-5-5-5h-29.26c-18.86,0-34.15,15.29-34.15,34.15v45.54c0,18.86,15.29,34.15,34.15,34.15h45.54c18.86,0,34.15-15.29,34.15-34.15v-17.03c.02-.18.03-.36.03-.55v-12.96Z"/>
      <rect class="st5" x="135" y="66.96" width="25.33" height="25.33" rx="5.52" ry="5.52"/>
    </g>
    <g>
      <path class="st3" d="M179.26,170.51v-59.33h16.09v59.33h-16.09ZM219.18,170.51v-34.03c0-3.52-1.11-6.39-3.32-8.6-2.21-2.21-5.08-3.32-8.6-3.32-2.29,0-4.34.49-6.14,1.47-1.8.98-3.21,2.38-4.24,4.18-1.03,1.8-1.54,3.89-1.54,6.27l-6.26-3.19c0-4.67,1-8.74,3.01-12.22,2.01-3.48,4.79-6.2,8.35-8.17,3.56-1.97,7.6-2.95,12.1-2.95s8.23,1.09,11.67,3.25c3.44,2.17,6.14,5,8.11,8.48,1.97,3.48,2.95,7.23,2.95,11.24v37.59h-16.09Z"/>
      <path class="st3" d="M271.27,171.74c-5.98,0-11.36-1.37-16.15-4.12-4.79-2.74-8.6-6.47-11.42-11.18-2.83-4.71-4.24-9.97-4.24-15.79s1.39-11.04,4.18-15.66c2.78-4.62,6.59-8.31,11.42-11.06,4.83-2.74,10.2-4.12,16.09-4.12s11.49,1.37,16.28,4.12c4.79,2.75,8.58,6.43,11.36,11.06,2.78,4.63,4.18,9.85,4.18,15.66s-1.39,11.08-4.18,15.79c-2.79,4.71-6.57,8.44-11.36,11.18-4.79,2.74-10.18,4.12-16.15,4.12ZM271.14,156.75c3.03,0,5.71-.68,8.05-2.03,2.33-1.35,4.13-3.23,5.41-5.65,1.27-2.41,1.9-5.18,1.9-8.29s-.66-5.85-1.97-8.23c-1.31-2.37-3.11-4.24-5.41-5.59-2.29-1.35-4.96-2.03-7.98-2.03s-5.57.68-7.86,2.03c-2.29,1.35-4.1,3.21-5.41,5.59-1.31,2.38-1.96,5.12-1.96,8.23s.65,5.88,1.96,8.29c1.31,2.42,3.11,4.3,5.41,5.65,2.29,1.35,4.91,2.03,7.86,2.03Z"/>
      <path class="st3" d="M325.93,170.51l-26.17-59.33h17.69l18.79,48.89h-8.72l18.92-48.89h17.08l-26.04,59.33h-11.55Z"/>
      <path class="st3" d="M389.07,171.74c-5.41,0-10.28-1.35-14.62-4.05-4.34-2.7-7.74-6.39-10.2-11.06s-3.69-9.91-3.69-15.72,1.23-11.18,3.69-15.85,5.85-8.35,10.2-11.06c4.34-2.7,9.21-4.05,14.62-4.05,4.26,0,8.07.86,11.42,2.58,3.36,1.72,6.04,4.12,8.05,7.19,2.01,3.07,3.09,6.53,3.25,10.38v21.37c-.17,3.93-1.25,7.41-3.25,10.44-2.01,3.03-4.69,5.43-8.05,7.19-3.36,1.76-7.17,2.64-11.42,2.64ZM392.02,156.87c4.5,0,8.15-1.49,10.93-4.48,2.78-2.99,4.18-6.86,4.18-11.61,0-3.11-.64-5.88-1.9-8.29-1.27-2.42-3.03-4.3-5.28-5.65-2.25-1.35-4.89-2.03-7.92-2.03s-5.55.67-7.8,2.03c-2.25,1.35-4.01,3.24-5.28,5.65-1.27,2.42-1.9,5.18-1.9,8.29s.63,6,1.9,8.42c1.27,2.42,3.03,4.3,5.28,5.65,2.25,1.35,4.85,2.03,7.8,2.03ZM406.27,170.51v-15.97l2.58-14.5-2.58-14.25v-14.62h15.97v59.33h-15.97Z"/>
      <path class="st3" d="M429.12,195.32v-84.15h16.09v15.6l-2.7,14.37,2.58,14.37v39.8h-15.97ZM462.04,171.74c-4.26,0-8.11-.88-11.55-2.64-3.44-1.76-6.18-4.16-8.23-7.19-2.05-3.03-3.15-6.51-3.32-10.44v-21.01c.16-3.93,1.29-7.43,3.38-10.5,2.09-3.07,4.83-5.51,8.23-7.31,3.4-1.8,7.23-2.7,11.49-2.7,5.49,0,10.4,1.35,14.74,4.05,4.34,2.7,7.76,6.39,10.26,11.06,2.5,4.67,3.75,9.95,3.75,15.85s-1.25,11.06-3.75,15.72c-2.5,4.67-5.92,8.35-10.26,11.06-4.34,2.7-9.25,4.05-14.74,4.05ZM459.21,156.87c2.95,0,5.57-.68,7.86-2.03,2.29-1.35,4.07-3.23,5.34-5.65,1.27-2.41,1.9-5.22,1.9-8.42s-.64-5.88-1.9-8.29c-1.27-2.42-3.05-4.3-5.34-5.65-2.29-1.35-4.91-2.03-7.86-2.03s-5.45.67-7.74,2.03c-2.29,1.35-4.08,3.24-5.34,5.65-1.27,2.42-1.9,5.18-1.9,8.29s.63,6,1.9,8.42c1.27,2.42,3.03,4.3,5.28,5.65,2.25,1.35,4.85,2.03,7.8,2.03Z"/>
      <path class="st3" d="M523.7,171.74c-5.41,0-10.28-1.35-14.62-4.05-4.34-2.7-7.74-6.39-10.2-11.06s-3.69-9.91-3.69-15.72,1.23-11.18,3.69-15.85,5.85-8.35,10.2-11.06c4.34-2.7,9.21-4.05,14.62-4.05,4.26,0,8.07.86,11.42,2.58,3.36,1.72,6.04,4.12,8.05,7.19,2.01,3.07,3.09,6.53,3.25,10.38v21.37c-.17,3.93-1.25,7.41-3.25,10.44-2.01,3.03-4.69,5.43-8.05,7.19-3.36,1.76-7.17,2.64-11.42,2.64ZM526.65,156.87c4.5,0,8.15-1.49,10.93-4.48,2.78-2.99,4.18-6.86,4.18-11.61,0-3.11-.64-5.88-1.9-8.29-1.27-2.42-3.03-4.3-5.28-5.65-2.25-1.35-4.89-2.03-7.92-2.03s-5.55.67-7.8,2.03c-2.25,1.35-4.01,3.24-5.28,5.65-1.27,2.42-1.9,5.18-1.9,8.29s.63,6,1.9,8.42c1.27,2.42,3.03,4.3,5.28,5.65,2.25,1.35,4.85,2.03,7.8,2.03ZM540.9,170.51v-15.97l2.58-14.5-2.58-14.25v-14.62h15.97v59.33h-15.97Z"/>
      <path class="st3" d="M561.05,125.3v-14.13h43.85v14.13h-43.85ZM574.93,170.51v-84.02h16.09v84.02h-16.09Z"/>
      <path class="st3" d="M635.61,171.74c-6.06,0-11.51-1.35-16.34-4.05-4.83-2.7-8.64-6.39-11.42-11.06-2.79-4.67-4.18-9.91-4.18-15.72s1.39-11.18,4.18-15.85c2.78-4.67,6.61-8.37,11.49-11.12,4.87-2.74,10.3-4.12,16.28-4.12,4.67,0,8.97.86,12.9,2.58s7.33,4.18,10.2,7.37l-10.32,10.44c-1.56-1.72-3.42-3.03-5.59-3.93-2.17-.9-4.57-1.35-7.19-1.35-2.95,0-5.59.68-7.92,2.03s-4.18,3.19-5.53,5.53c-1.35,2.33-2.03,5.1-2.03,8.29s.68,5.88,2.03,8.29c1.35,2.42,3.19,4.3,5.53,5.65,2.33,1.35,4.98,2.03,7.92,2.03,2.7,0,5.14-.47,7.31-1.41,2.17-.94,4.03-2.31,5.59-4.12l10.44,10.44c-3.03,3.28-6.51,5.77-10.44,7.49s-8.23,2.58-12.9,2.58Z"/>
      <path class="st3" d="M663.13,170.51v-88.82h16.09v88.82h-16.09ZM703.05,170.51v-34.03c0-3.52-1.11-6.39-3.32-8.6-2.21-2.21-5.08-3.32-8.6-3.32-2.29,0-4.34.49-6.14,1.47-1.8.98-3.21,2.38-4.24,4.18-1.03,1.8-1.54,3.89-1.54,6.27l-6.26-3.19c0-4.67.98-8.74,2.95-12.22,1.96-3.48,4.69-6.2,8.17-8.17,3.48-1.97,7.47-2.95,11.98-2.95s8.5.98,11.98,2.95c3.48,1.97,6.2,4.67,8.17,8.11,1.97,3.44,2.95,7.41,2.95,11.92v37.59h-16.09Z"/>
    </g>
  </g>
  <g>
    <g>
      <rect class="st1" x="999.05" y="111.19" width="25.33" height="25.33" rx="5.52" ry="5.52"/>
      <rect class="st1" x="1021.2" y="89.04" width="25.33" height="25.33" rx="5.52" ry="5.52"/>
      <path class="st2" d="M1068.58,116.19c0-2.76-2.24-5-5-5h-12.96c-2.76,0-5,2.24-5,5v12.96c0,.43.06.85.16,1.25v16.32c0,6.29-5.09,11.38-11.38,11.38h-45.54c-6.29,0-11.38-5.09-11.38-11.38v-45.54c0-6.29,5.09-11.38,11.38-11.38h14.94c.43.12.89.19,1.36.19h12.96c2.76,0,5-2.24,5-5v-12.96c0-2.76-2.24-5-5-5h-29.26c-18.86,0-34.15,15.29-34.15,34.15v45.54c0,18.86,15.29,34.15,34.15,34.15h45.54c18.86,0,34.15-15.29,34.15-34.15v-17.03c.02-.18.03-.36.03-.55v-12.96Z"/>
      <rect class="st1" x="1043.28" y="66.96" width="25.33" height="25.33" rx="5.52" ry="5.52"/>
    </g>
    <g>
      <path class="st1" d="M1087.54,170.51v-59.33h16.09v59.33h-16.09ZM1127.46,170.51v-34.03c0-3.52-1.11-6.39-3.32-8.6-2.21-2.21-5.08-3.32-8.6-3.32-2.29,0-4.34.49-6.14,1.47-1.8.98-3.21,2.38-4.24,4.18-1.03,1.8-1.54,3.89-1.54,6.27l-6.26-3.19c0-4.67,1-8.74,3.01-12.22,2.01-3.48,4.79-6.2,8.35-8.17,3.56-1.97,7.6-2.95,12.1-2.95s8.23,1.09,11.67,3.25c3.44,2.17,6.14,5,8.11,8.48,1.97,3.48,2.95,7.23,2.95,11.24v37.59h-16.09Z"/>
      <path class="st1" d="M1179.55,171.74c-5.98,0-11.36-1.37-16.15-4.12-4.79-2.74-8.6-6.47-11.42-11.18-2.83-4.71-4.24-9.97-4.24-15.79s1.39-11.04,4.18-15.66c2.78-4.62,6.59-8.31,11.42-11.06,4.83-2.74,10.2-4.12,16.09-4.12s11.49,1.37,16.28,4.12c4.79,2.75,8.58,6.43,11.36,11.06,2.78,4.63,4.18,9.85,4.18,15.66s-1.39,11.08-4.18,15.79c-2.79,4.71-6.57,8.44-11.36,11.18-4.79,2.74-10.18,4.12-16.15,4.12ZM1179.42,156.75c3.03,0,5.71-.68,8.05-2.03,2.33-1.35,4.13-3.23,5.41-5.65,1.27-2.41,1.9-5.18,1.9-8.29s-.66-5.85-1.97-8.23c-1.31-2.37-3.11-4.24-5.41-5.59-2.29-1.35-4.96-2.03-7.98-2.03s-5.57.68-7.86,2.03c-2.29,1.35-4.1,3.21-5.41,5.59-1.31,2.38-1.96,5.12-1.96,8.23s.65,5.88,1.96,8.29c1.31,2.42,3.11,4.3,5.41,5.65,2.29,1.35,4.91,2.03,7.86,2.03Z"/>
      <path class="st1" d="M1234.21,170.51l-26.17-59.33h17.69l18.79,48.89h-8.72l18.92-48.89h17.08l-26.04,59.33h-11.55Z"/>
      <path class="st1" d="M1297.35,171.74c-5.41,0-10.28-1.35-14.62-4.05-4.34-2.7-7.74-6.39-10.2-11.06s-3.69-9.91-3.69-15.72,1.23-11.18,3.69-15.85,5.85-8.35,10.2-11.06c4.34-2.7,9.21-4.05,14.62-4.05,4.26,0,8.07.86,11.42,2.58,3.36,1.72,6.04,4.12,8.05,7.19,2.01,3.07,3.09,6.53,3.25,10.38v21.37c-.17,3.93-1.25,7.41-3.25,10.44-2.01,3.03-4.69,5.43-8.05,7.19-3.36,1.76-7.17,2.64-11.42,2.64ZM1300.3,156.87c4.5,0,8.15-1.49,10.93-4.48,2.78-2.99,4.18-6.86,4.18-11.61,0-3.11-.64-5.88-1.9-8.29-1.27-2.42-3.03-4.3-5.28-5.65-2.25-1.35-4.89-2.03-7.92-2.03s-5.55.67-7.8,2.03c-2.25,1.35-4.01,3.24-5.28,5.65-1.27,2.42-1.9,5.18-1.9,8.29s.63,6,1.9,8.42c1.27,2.42,3.03,4.3,5.28,5.65,2.25,1.35,4.85,2.03,7.8,2.03ZM1314.55,170.51v-15.97l2.58-14.5-2.58-14.25v-14.62h15.97v59.33h-15.97Z"/>
      <path class="st1" d="M1337.4,195.32v-84.15h16.09v15.6l-2.7,14.37,2.58,14.37v39.8h-15.97ZM1370.32,171.74c-4.26,0-8.11-.88-11.55-2.64-3.44-1.76-6.18-4.16-8.23-7.19-2.05-3.03-3.15-6.51-3.32-10.44v-21.01c.16-3.93,1.29-7.43,3.38-10.5,2.09-3.07,4.83-5.51,8.23-7.31,3.4-1.8,7.23-2.7,11.49-2.7,5.49,0,10.4,1.35,14.74,4.05,4.34,2.7,7.76,6.39,10.26,11.06,2.5,4.67,3.75,9.95,3.75,15.85s-1.25,11.06-3.75,15.72c-2.5,4.67-5.92,8.35-10.26,11.06-4.34,2.7-9.25,4.05-14.74,4.05ZM1367.49,156.87c2.95,0,5.57-.68,7.86-2.03,2.29-1.35,4.07-3.23,5.34-5.65,1.27-2.41,1.9-5.22,1.9-8.42s-.64-5.88-1.9-8.29c-1.27-2.42-3.05-4.3-5.34-5.65-2.29-1.35-4.91-2.03-7.86-2.03s-5.45.67-7.74,2.03c-2.29,1.35-4.08,3.24-5.34,5.65-1.27,2.42-1.9,5.18-1.9,8.29s.63,6,1.9,8.42c1.27,2.42,3.03,4.3,5.28,5.65,2.25,1.35,4.85,2.03,7.8,2.03Z"/>
      <path class="st1" d="M1431.99,171.74c-5.41,0-10.28-1.35-14.62-4.05-4.34-2.7-7.74-6.39-10.2-11.06s-3.69-9.91-3.69-15.72,1.23-11.18,3.69-15.85,5.85-8.35,10.2-11.06c4.34-2.7,9.21-4.05,14.62-4.05,4.26,0,8.07.86,11.42,2.58,3.36,1.72,6.04,4.12,8.05,7.19,2.01,3.07,3.09,6.53,3.25,10.38v21.37c-.17,3.93-1.25,7.41-3.25,10.44-2.01,3.03-4.69,5.43-8.05,7.19-3.36,1.76-7.17,2.64-11.42,2.64ZM1434.93,156.87c4.5,0,8.15-1.49,10.93-4.48,2.78-2.99,4.18-6.86,4.18-11.61,0-3.11-.64-5.88-1.9-8.29-1.27-2.42-3.03-4.3-5.28-5.65-2.25-1.35-4.89-2.03-7.92-2.03s-5.55.67-7.8,2.03c-2.25,1.35-4.01,3.24-5.28,5.65-1.27,2.42-1.9,5.18-1.9,8.29s.63,6,1.9,8.42c1.27,2.42,3.03,4.3,5.28,5.65,2.25,1.35,4.85,2.03,7.8,2.03ZM1449.18,170.51v-15.97l2.58-14.5-2.58-14.25v-14.62h15.97v59.33h-15.97Z"/>
      <path class="st1" d="M1469.33,125.3v-14.13h43.85v14.13h-43.85ZM1483.21,170.51v-84.02h16.09v84.02h-16.09Z"/>
      <path class="st1" d="M1543.9,171.74c-6.06,0-11.51-1.35-16.34-4.05-4.83-2.7-8.64-6.39-11.42-11.06-2.79-4.67-4.18-9.91-4.18-15.72s1.39-11.18,4.18-15.85c2.78-4.67,6.61-8.37,11.49-11.12,4.87-2.74,10.3-4.12,16.28-4.12,4.67,0,8.97.86,12.9,2.58s7.33,4.18,10.2,7.37l-10.32,10.44c-1.56-1.72-3.42-3.03-5.59-3.93-2.17-.9-4.57-1.35-7.19-1.35-2.95,0-5.59.68-7.92,2.03s-4.18,3.19-5.53,5.53c-1.35,2.33-2.03,5.1-2.03,8.29s.68,5.88,2.03,8.29c1.35,2.42,3.19,4.3,5.53,5.65,2.33,1.35,4.98,2.03,7.92,2.03,2.7,0,5.14-.47,7.31-1.41,2.17-.94,4.03-2.31,5.59-4.12l10.44,10.44c-3.03,3.28-6.51,5.77-10.44,7.49s-8.23,2.58-12.9,2.58Z"/>
      <path class="st1" d="M1571.41,170.51v-88.82h16.09v88.82h-16.09ZM1611.33,170.51v-34.03c0-3.52-1.11-6.39-3.32-8.6-2.21-2.21-5.08-3.32-8.6-3.32-2.29,0-4.34.49-6.14,1.47-1.8.98-3.21,2.38-4.24,4.18-1.03,1.8-1.54,3.89-1.54,6.27l-6.26-3.19c0-4.67.98-8.74,2.95-12.22,1.96-3.48,4.69-6.2,8.17-8.17,3.48-1.97,7.47-2.95,11.98-2.95s8.5.98,11.98,2.95c3.48,1.97,6.2,4.67,8.17,8.11,1.97,3.44,2.95,7.41,2.95,11.92v37.59h-16.09Z"/>
    </g>
    <g>
      <rect class="st1" x="804.96" y="590.61" width="25.33" height="25.33" rx="5.52" ry="5.52"/>
      <rect class="st1" x="827.11" y="568.46" width="25.33" height="25.33" rx="5.52" ry="5.52"/>
      <path class="st2" d="M874.49,595.61c0-2.76-2.24-5-5-5h-12.96c-2.76,0-5,2.24-5,5v12.96c0,.43.06.85.16,1.25v16.32c0,6.29-5.09,11.38-11.38,11.38h-45.54c-6.29,0-11.38-5.09-11.38-11.38v-45.54c0-6.29,5.09-11.38,11.38-11.38h14.94c.43.12.89.19,1.36.19h12.96c2.76,0,5-2.24,5-5v-12.96c0-2.76-2.24-5-5-5h-29.26c-18.86,0-34.15,15.29-34.15,34.15v45.54c0,18.86,15.29,34.15,34.15,34.15h45.54c18.86,0,34.15-15.29,34.15-34.15v-17.03c.02-.18.03-.36.03-.55v-12.96Z"/>
      <rect class="st1" x="849.19" y="546.39" width="25.33" height="25.33" rx="5.52" ry="5.52"/>
    </g>
  </g>
  <g>
    <rect class="st3" x="367.7" y="590.68" width="25.33" height="25.33" rx="5.52" ry="5.52"/>
    <rect class="st0" x="389.85" y="568.53" width="25.33" height="25.33" rx="5.52" ry="5.52"/>
    <path class="st4" d="M437.23,595.68c0-2.76-2.24-5-5-5h-12.96c-2.76,0-5,2.24-5,5v12.96c0,.43.06.85.16,1.25v16.32c0,6.29-5.09,11.38-11.38,11.38h-45.54c-6.29,0-11.38-5.09-11.38-11.38v-45.54c0-6.29,5.09-11.38,11.38-11.38h14.94c.43.12.89.19,1.36.19h12.96c2.76,0,5-2.24,5-5v-12.96c0-2.76-2.24-5-5-5h-29.26c-18.86,0-34.15,15.29-34.15,34.15v45.54c0,18.86,15.29,34.15,34.15,34.15h45.54c18.86,0,34.15-15.29,34.15-34.15v-17.03c.02-.18.03-.36.03-.55v-12.96Z"/>
    <rect class="st5" x="411.93" y="546.45" width="25.33" height="25.33" rx="5.52" ry="5.52"/>
  </g>
</svg>