<svg version="1.2" xmlns="http://www.w3.org/2000/svg" viewBox="0 0 23 23" width="23" height="23">
	<style>
		tspan { white-space:pre } 
		.s0 { fill: #231f20 } 
	</style>
	<g id="Layer 1">
		<path id="&lt;Compound Path&gt;" fill-rule="evenodd" class="s0" d="m21.95 21.6c-0.45 0.45-1.05 0.68-1.64 0.68-0.59 0-1.19-0.23-1.64-0.68l-4.97-4.97c-1.31 0.75-2.82 1.19-4.44 1.19-4.91 0-8.91-4-8.91-8.91 0-4.91 4-8.91 8.91-8.91 4.91 0 8.91 4 8.91 8.91 0 1.62-0.44 3.13-1.19 4.44l4.97 4.97c0.9 0.9 0.9 2.37 0 3.28zm-12.69-5.26c4.09 0 7.43-3.33 7.43-7.43 0-4.09-3.34-7.42-7.43-7.42-4.09 0-7.43 3.33-7.43 7.42 0 4.1 3.34 7.43 7.43 7.43zm11.64 3.03l-4.78-4.78q-0.53 0.65-1.18 1.18l4.78 4.78c0.33 0.32 0.85 0.32 1.18 0 0.32-0.33 0.32-0.85 0-1.18z"/>
	</g>
</svg>