<svg version="1.2" xmlns="http://www.w3.org/2000/svg" viewBox="0 0 637 302" width="637" height="302">
	<style>
		tspan { white-space:pre } 
		.s0 { fill: none;stroke: #005088;stroke-miterlimit:10;stroke-width: 2.3 } 
	</style>
	<g id="Layer 1">
		<path id="&lt;Path&gt;" class="s0" d="m1.92 99.8v-55.97c0-23.2 18.8-42 42-42h55.96c23.2 0 42.01 18.8 42.01 42v58.41c0 31.95 26.14 58.09 58.09 58.09l393.18 0.01c23.19 0 42 18.8 42 42v55.96c0 23.2-18.81 42.01-42 42.01h-391.37c-23.2 0-42-18.81-42-42.01v-58.41c0-31.95-26.14-58.09-58.1-58.09h-57.77c-23.2 0-42-18.81-42-42z"/>
	</g>
</svg>