<svg version="1.2" xmlns="http://www.w3.org/2000/svg" viewBox="0 0 609 421" width="609" height="421">
	<style>
		tspan { white-space:pre } 
		.s0 { fill: #f7edea } 
		.t1 { font-size: 41px;line-height: 39px;fill: #121212;font-weight: 500;font-family: "Outfit-Medium", "Outfit" } 
		.s2 { fill: #4e82bc } 
		.s3 { fill: none;stroke: #121212;stroke-linecap: round;stroke-linejoin: round;stroke-width: 2 } 
		.s4 { fill: none;stroke: #121212;stroke-linecap: round;stroke-linejoin: round;stroke-width: 2;stroke-dasharray: 12.2851572036743,10.3195323944092 } 
		.s5 { fill: #121212 } 
		.s6 { fill: none;stroke: #000000;stroke-linecap: round;stroke-linejoin: round;stroke-width: 2 } 
		.s7 { fill: none;stroke: #000000;stroke-linecap: round;stroke-linejoin: round;stroke-width: 2;stroke-dasharray: 12.2851572036743,10.3195323944092 } 
		.s8 { fill: #000000 } 
		.s9 { fill: #d9c709 } 
	</style>
	<g id="Layer 1">
		<g id="onda1">
			<g id="&lt;Group&gt;">
				<path id="&lt;Path&gt;" class="s0" d="m19.31 328.55q3.39-1.95 6.95-3.56c2.35-1.05-0.38 0-0.36 0.14 0-0.04 1.64-0.64 1.52-0.6q2.09-0.79 4.22-1.46 3.49-1.1 7.05-1.89 1.79-0.4 3.59-0.72 1.01-0.18 2.01-0.34c2.93-0.47-1.32 0.13-0.08-0.01 10.66-1.19 21.32-0.97 31.97 0.32 0.14 0.02 1.46 0.06 1.67 0.22q-0.82-0.11-1.65-0.22 0.63 0.08 1.26 0.18 1.88 0.28 3.76 0.59 4.17 0.69 8.31 1.55c5.27 1.08 10.51 2.34 15.71 3.69 11.82 3.08 23.54 6.53 35.4 9.42 24.47 5.97 49.44 9.05 74.3 3.54 20.54-4.54 39.52-13.96 59.23-21.01 4.97-1.78 10-3.42 15.11-4.77q3.5-0.93 7.05-1.66 1.77-0.37 3.55-0.68 0.99-0.16 1.98-0.32c2.47-0.43-2.83 0.31-0.14 0.01 5.09-0.58 10.21-0.85 15.34-0.55 1.35 0.08 2.69 0.22 4.04 0.35 0.8 0.07 2.27 0.49-0.92-0.14 0.53 0.11 1.07 0.16 1.6 0.25q3.99 0.65 7.92 1.64c20.48 5.11 39.11 15.81 59.72 20.52 11.44 2.62 23.32 3.11 35.02 3.38 9.99 0.22 20 0 29.96-0.75 17.29-1.3 34.43-4.15 51.31-8.09 13.4-3.12 26.66-6.89 40.13-9.73q5.01-1.06 10.07-1.9 2.35-0.39 4.72-0.73c1.86-0.27-1.83 0.23-1.74 0.23 0.44-0.02 0.89-0.12 1.33-0.17q1.47-0.18 2.94-0.34 10.69-1.16 21.43-0.9 5.84 0.16 11.66 0.71c6.53 0.61 12.78-6.19 12.5-12.5-0.33-7.29-5.51-11.85-12.5-12.5-15.58-1.46-31.05-0.52-46.47 2-13.45 2.2-26.62 5.77-39.82 9.08-7.22 1.81-14.47 3.54-21.77 5.04q-5.74 1.17-11.52 2.14-2.86 0.48-5.73 0.9c-0.94 0.14-5.1 0.64-0.6 0.1q-1.67 0.21-3.34 0.43c-20.35 2.45-40.99 2.67-61.41 1.04-1.08-0.08-3.03-0.64-4.06-0.41 0.24-0.05 3.1 0.49 0.91 0.1q-1-0.17-2-0.34-4-0.73-7.93-1.77c-5.15-1.36-10.2-3.07-15.2-4.91-9.8-3.63-19.38-7.82-29.27-11.22-10.75-3.7-22.01-6.32-33.42-6.61-11.01-0.28-22.17 1.54-32.77 4.4-20.39 5.52-39.33 15.18-59.38 21.67-4.93 1.59-9.91 2.99-14.97 4.08-2.53 0.54-5.07 0.97-7.62 1.37-1.88 0.3 3.51-0.39 0.37-0.06q-0.94 0.1-1.88 0.2-2.57 0.25-5.15 0.37c-6.06 0.3-12.15 0.1-18.19-0.47q-2.1-0.2-4.19-0.45c-0.81-0.1-2.99-0.13 0.07 0.02-0.6-0.03-1.27-0.19-1.86-0.28q-4.65-0.71-9.27-1.63c-23.11-4.59-45.39-12.63-68.58-16.87-22.35-4.08-46.29-5.58-68.13 1.93-5.66 1.94-11.2 4.39-16.38 7.37-5.67 3.26-8.12 11.45-4.48 17.1 3.69 5.72 11.03 7.97 17.1 4.48z"/>
			</g>
		</g>
		<g id="onda2">
			<g id="&lt;Group&gt;">
				<path id="&lt;Path&gt;" class="s0" d="m19.31 367.55q3.39-1.95 6.95-3.56c2.35-1.05-0.38 0-0.36 0.14 0-0.04 1.64-0.64 1.52-0.6q2.09-0.79 4.22-1.46 3.49-1.1 7.05-1.89 1.79-0.4 3.59-0.72 1.01-0.18 2.01-0.34c2.93-0.47-1.32 0.13-0.08-0.01 10.66-1.19 21.32-0.97 31.97 0.32 0.14 0.02 1.46 0.06 1.67 0.22q-0.82-0.11-1.65-0.22 0.63 0.08 1.26 0.18 1.88 0.28 3.76 0.59 4.17 0.69 8.31 1.55c5.27 1.08 10.51 2.34 15.71 3.69 11.82 3.08 23.54 6.53 35.4 9.42 24.47 5.97 49.44 9.05 74.3 3.54 20.54-4.54 39.52-13.96 59.23-21.01 4.97-1.78 10-3.42 15.11-4.77q3.5-0.93 7.05-1.66 1.77-0.37 3.55-0.68 0.99-0.16 1.98-0.32c2.47-0.43-2.83 0.31-0.14 0.01 5.09-0.58 10.21-0.85 15.34-0.55 1.35 0.08 2.69 0.22 4.04 0.35 0.8 0.07 2.27 0.49-0.92-0.14 0.53 0.11 1.07 0.16 1.6 0.25q3.99 0.65 7.92 1.64c20.48 5.11 39.11 15.81 59.72 20.52 11.44 2.62 23.32 3.11 35.02 3.38 9.99 0.22 20 0 29.96-0.75 17.29-1.3 34.43-4.15 51.31-8.09 13.4-3.12 26.66-6.89 40.13-9.73q5.01-1.06 10.07-1.9 2.35-0.39 4.72-0.73c1.86-0.27-1.83 0.23-1.74 0.23 0.44-0.02 0.89-0.12 1.33-0.17q1.47-0.18 2.94-0.34 10.69-1.16 21.43-0.9 5.84 0.16 11.66 0.71c6.53 0.61 12.78-6.19 12.5-12.5-0.33-7.29-5.51-11.85-12.5-12.5-15.58-1.46-31.05-0.52-46.47 2-13.45 2.2-26.62 5.77-39.82 9.08-7.22 1.81-14.47 3.54-21.77 5.04q-5.74 1.17-11.52 2.14-2.86 0.48-5.73 0.9c-0.94 0.14-5.1 0.64-0.6 0.1q-1.67 0.21-3.34 0.43c-20.35 2.45-40.99 2.67-61.41 1.04-1.08-0.08-3.03-0.64-4.06-0.41 0.24-0.05 3.1 0.49 0.91 0.1q-1-0.17-2-0.34-4-0.73-7.93-1.77c-5.15-1.36-10.2-3.07-15.2-4.91-9.8-3.63-19.38-7.82-29.27-11.22-10.75-3.7-22.01-6.32-33.42-6.61-11.01-0.28-22.17 1.54-32.77 4.4-20.39 5.52-39.33 15.18-59.38 21.67-4.93 1.59-9.91 2.99-14.97 4.08-2.53 0.54-5.07 0.97-7.62 1.37-1.88 0.3 3.51-0.39 0.37-0.06q-0.94 0.1-1.88 0.2-2.57 0.25-5.15 0.37c-6.06 0.3-12.15 0.1-18.19-0.47q-2.1-0.2-4.19-0.45c-0.81-0.1-2.99-0.13 0.07 0.02-0.6-0.03-1.27-0.19-1.86-0.28q-4.65-0.71-9.27-1.63c-23.11-4.59-45.39-12.63-68.58-16.87-22.35-4.08-46.29-5.58-68.13 1.93-5.66 1.94-11.2 4.39-16.38 7.37-5.67 3.26-8.12 11.45-4.48 17.1 3.69 5.72 11.03 7.97 17.1 4.48z"/>
			</g>
		</g>
		<text id="Parche
vitamínico

" style="transform: matrix(.5,0,0,.5,534.489,136.969)" >
			<tspan x="-64.6" y="0" class="t1">Parche
</tspan>
			<tspan x="-95.2" y="39" class="t1">vitamínico
</tspan>
		</text>
		<text id="Vitaminas
y extractos
" style="transform: matrix(.5,0,0,.5,40.989,215.469)" >
			<tspan x="0" y="0" class="t1">Vitaminas
</tspan>
			<tspan x="0" y="39" class="t1">y extractos
</tspan>
		</text>
		<text id="Los nutrientes se absorben
a través de la piel
" style="transform: matrix(.5,0,0,.5,382.989,396.969)" >
			<tspan x="-243.8" y="0" class="t1">Los nutrientes se absorben
</tspan>
			<tspan x="-159" y="39" class="t1">a través de la piel
</tspan>
		</text>
		<path id="&lt;Path&gt;" class="s2" d="m6.37 92.12l259.94 58.52c34.42 7.75 70.33 5.58 103.57-6.26l199.57-73.4c3.96-1.45 3.57-7.18-0.55-8.09l-267.15-58.95c-24.39-5.38-49.79-3.94-73.42 4.16l-222.38 76.29c-3.84 1.31-3.54 6.84 0.42 7.73z"/>
		<g id="&lt;Group&gt;">
			<g id="&lt;Group&gt;">
				<path id="&lt;Path&gt;" class="s3" d="m246.5 183c0 0-0.31-2.32-1.22-6.13"/>
				<path id="&lt;Path&gt;" class="s4" d="m242.4 166.97c-7.13-20.79-25.6-54.56-70.65-55.72-47.6-1.23-66.94 35.92-74.23 58.13"/>
				<path id="&lt;Path&gt;" class="s3" d="m96.01 174.32c-0.65 2.32-1.16 4.37-1.53 6.06"/>
				<g id="&lt;Group&gt;">
					<path id="&lt;Path&gt;" class="s5" d="m89.17 179.06c-0.58 2.97 1.36 5.86 4.33 6.44 2.97 0.58 5.86-1.36 6.44-4.33 0.59-2.98-1.35-5.86-4.33-6.44-2.97-0.59-5.86 1.35-6.44 4.33z"/>
				</g>
			</g>
		</g>
		<g id="&lt;Group&gt;">
			<g id="&lt;Group&gt;">
				<path id="&lt;Path&gt;" class="s6" d="m383 106.5c0 0 0.31-2.32 1.22-6.13"/>
				<path id="&lt;Path&gt;" class="s7" d="m387.1 90.47c7.13-20.79 25.6-54.56 70.65-55.72 47.6-1.23 66.94 35.92 74.23 58.13"/>
				<path id="&lt;Path&gt;" class="s6" d="m533.49 97.82c0.65 2.32 1.16 4.37 1.53 6.06"/>
				<g id="&lt;Group&gt;">
					<path id="&lt;Path&gt;" class="s8" d="m529.56 104.67c0.58 2.97 3.47 4.91 6.44 4.33 2.97-0.58 4.91-3.47 4.33-6.44-0.58-2.98-3.47-4.92-6.44-4.33-2.98 0.58-4.92 3.46-4.33 6.44z"/>
				</g>
			</g>
		</g>
		<g id="&lt;Group&gt;">
			<path id="&lt;Path&gt;" class="s9" d="m37 116.5c0 4.69-3.81 8.5-8.5 8.5-4.69 0-8.5-3.81-8.5-8.5 0-4.69 3.81-8.5 8.5-8.5 4.69 0 8.5 3.81 8.5 8.5z"/>
		</g>
		<g id="&lt;Group&gt;">
			<path id="&lt;Path&gt;" class="s9" d="m172 158.5c0 4.69-3.81 8.5-8.5 8.5-4.69 0-8.5-3.81-8.5-8.5 0-4.69 3.81-8.5 8.5-8.5 4.69 0 8.5 3.81 8.5 8.5z"/>
		</g>
		<g id="&lt;Group&gt;">
			<path id="&lt;Path&gt;" class="s9" d="m279 193.5c0 4.69-3.81 8.5-8.5 8.5-4.69 0-8.5-3.81-8.5-8.5 0-4.69 3.81-8.5 8.5-8.5 4.69 0 8.5 3.81 8.5 8.5z"/>
		</g>
		<g id="&lt;Group&gt;">
			<path id="&lt;Path&gt;" class="s9" d="m444.5 135.5c0 4.69-3.81 8.5-8.5 8.5-4.69 0-8.5-3.81-8.5-8.5 0-4.69 3.81-8.5 8.5-8.5 4.69 0 8.5 3.81 8.5 8.5z"/>
		</g>
		<g id="&lt;Group&gt;">
			<path id="&lt;Path&gt;" class="s9" d="m388 197c0 4.69-3.81 8.5-8.5 8.5-4.69 0-8.5-3.81-8.5-8.5 0-4.69 3.81-8.5 8.5-8.5 4.69 0 8.5 3.81 8.5 8.5z"/>
		</g>
		<g id="&lt;Group&gt;">
			<path id="&lt;Path&gt;" class="s9" d="m304.5 240c0 4.69-3.81 8.5-8.5 8.5-4.69 0-8.5-3.81-8.5-8.5 0-4.69 3.81-8.5 8.5-8.5 4.69 0 8.5 3.81 8.5 8.5z"/>
		</g>
		<g id="&lt;Group&gt;">
			<path id="&lt;Path&gt;" class="s9" d="m179 262c0 4.69-3.81 8.5-8.5 8.5-4.69 0-8.5-3.81-8.5-8.5 0-4.69 3.81-8.5 8.5-8.5 4.69 0 8.5 3.81 8.5 8.5z"/>
		</g>
		<g id="&lt;Group&gt;">
			<path id="&lt;Path&gt;" class="s9" d="m97.5 355.5c0 4.69-3.81 8.5-8.5 8.5-4.69 0-8.5-3.81-8.5-8.5 0-4.69 3.81-8.5 8.5-8.5 4.69 0 8.5 3.81 8.5 8.5z"/>
		</g>
		<g id="&lt;Group&gt;">
			<path id="&lt;Path&gt;" class="s9" d="m193.5 334c0 4.69-3.81 8.5-8.5 8.5-4.69 0-8.5-3.81-8.5-8.5 0-4.69 3.81-8.5 8.5-8.5 4.69 0 8.5 3.81 8.5 8.5z"/>
		</g>
		<g id="&lt;Group&gt;">
			<path id="&lt;Path&gt;" class="s9" d="m42 318c0 4.69-3.81 8.5-8.5 8.5-4.69 0-8.5-3.81-8.5-8.5 0-4.69 3.81-8.5 8.5-8.5 4.69 0 8.5 3.81 8.5 8.5z"/>
		</g>
		<g id="&lt;Group&gt;">
			<path id="&lt;Path&gt;" class="s9" d="m421.5 320.5c0 4.69-3.81 8.5-8.5 8.5-4.69 0-8.5-3.81-8.5-8.5 0-4.69 3.81-8.5 8.5-8.5 4.69 0 8.5 3.81 8.5 8.5z"/>
		</g>
		<g id="&lt;Group&gt;">
			<path id="&lt;Path&gt;" class="s9" d="m562 360c0 4.69-3.81 8.5-8.5 8.5-4.69 0-8.5-3.81-8.5-8.5 0-4.69 3.81-8.5 8.5-8.5 4.69 0 8.5 3.81 8.5 8.5z"/>
		</g>
		<g id="&lt;Group&gt;">
			<path id="&lt;Path&gt;" class="s9" d="m453.5 369.5c0 4.69-3.81 8.5-8.5 8.5-4.69 0-8.5-3.81-8.5-8.5 0-4.69 3.81-8.5 8.5-8.5 4.69 0 8.5 3.81 8.5 8.5z"/>
		</g>
		<g id="&lt;Group&gt;">
			<path id="&lt;Path&gt;" class="s9" d="m480 220c0 4.69-3.81 8.5-8.5 8.5-4.69 0-8.5-3.81-8.5-8.5 0-4.69 3.81-8.5 8.5-8.5 4.69 0 8.5 3.81 8.5 8.5z"/>
		</g>
		<g id="&lt;Group&gt;">
			<path id="&lt;Path&gt;" class="s9" d="m533 195.5c0 4.69-3.81 8.5-8.5 8.5-4.69 0-8.5-3.81-8.5-8.5 0-4.69 3.81-8.5 8.5-8.5 4.69 0 8.5 3.81 8.5 8.5z"/>
		</g>
		<g id="&lt;Group&gt;">
			<g id="&lt;Group&gt;">
				<path id="&lt;Path&gt;" class="s3" d="m535.5 370c0 0-0.31-2.32-1.22-6.13"/>
				<path id="&lt;Path&gt;" class="s4" d="m531.4 353.97c-7.13-20.79-25.6-54.56-70.65-55.72-47.6-1.23-66.94 35.92-74.23 58.13"/>
				<path id="&lt;Path&gt;" class="s3" d="m385.01 361.32c-0.65 2.32-1.16 4.37-1.53 6.06"/>
				<g id="&lt;Group&gt;">
					<path id="&lt;Path&gt;" class="s5" d="m378.17 366.06c-0.58 2.97 1.36 5.86 4.33 6.44 2.97 0.58 5.86-1.36 6.44-4.33 0.59-2.98-1.35-5.86-4.33-6.44-2.97-0.59-5.86 1.35-6.44 4.33z"/>
				</g>
			</g>
		</g>
		<g id="&lt;Group&gt;">
			<path id="&lt;Path&gt;" class="s5" d="m258.95 278.19l-2.54 18.29c-0.06 0.46 0.29 0.87 0.75 0.87h5.08c0.46 0 0.82-0.41 0.75-0.87l-2.54-18.29c-0.12-0.88-1.38-0.88-1.5 0z"/>
		</g>
		<g id="&lt;Group&gt;">
			<path id="&lt;Path&gt;" class="s5" d="m260.24 304.1l5.13-7.71c0.29-0.42-0.02-0.99-0.53-0.99h-10.27c-0.52 0-0.82 0.57-0.54 0.99l5.14 7.71c0.25 0.38 0.81 0.38 1.07 0z"/>
		</g>
		<g id="&lt;Group&gt;">
			<path id="&lt;Path&gt;" class="s5" d="m288 278.19l-2.54 18.29c-0.07 0.46 0.29 0.87 0.75 0.87h5.08c0.46 0 0.81-0.41 0.75-0.87l-2.54-18.29c-0.12-0.88-1.38-0.88-1.5 0z"/>
		</g>
		<g id="&lt;Group&gt;">
			<path id="&lt;Path&gt;" class="s5" d="m289.28 304.1l5.14-7.71c0.28-0.42-0.02-0.99-0.53-0.99h-10.28c-0.51 0-0.82 0.57-0.53 0.99l5.13 7.71c0.26 0.38 0.82 0.38 1.07 0z"/>
		</g>
		<g id="&lt;Group&gt;">
			<path id="&lt;Path&gt;" class="s5" d="m316.55 278.19l-2.55 18.29c-0.06 0.46 0.29 0.87 0.75 0.87h5.09c0.46 0 0.81-0.41 0.75-0.87l-2.54-18.29c-0.12-0.88-1.38-0.88-1.5 0z"/>
		</g>
		<g id="&lt;Group&gt;">
			<path id="&lt;Path&gt;" class="s5" d="m317.83 304.1l5.14-7.71c0.28-0.42-0.02-0.99-0.54-0.99h-10.27c-0.51 0-0.82 0.57-0.54 0.99l5.14 7.71c0.25 0.38 0.82 0.38 1.07 0z"/>
		</g>
	</g>
</svg>