<svg version="1.2" xmlns="http://www.w3.org/2000/svg" viewBox="0 0 1501 212" width="1501" height="212">
	<style>
		tspan { white-space:pre } 
		.s0 { fill: #83b5f4 } 
	</style>
	<g id="Layer 1">
		<path id="&lt;Path&gt;" class="s0" d="m1500.19 211.5v-211.62h-16.75c-0.03 6.68-3.27 13.26-9.39 17.5-3.96 2.75-8.65 4.2-13.55 4.2-7.3 0-14.23-3.33-18.54-8.89-1.61-2.09-2.81-4.38-3.55-6.82-0.61-1.98-2.52-3.34-4.69-3.34h-0.01c-1.77 0.01-3.37 0.92-4.22 2.32-1.21 4.86-4.18 9.35-8.76 12.53q-2.65 1.83-5.65 2.87c-2.57 0.93-5.31 1.41-8.12 1.41-7.3 0-14.23-3.33-18.54-8.9-1.91-2.47-3.19-5.2-3.86-8.01-0.87-1.35-2.44-2.22-4.16-2.22h-0.02c-2.18 0.01-4.08 1.38-4.68 3.36-1.4 4.67-4.34 8.67-8.51 11.56-3.97 2.75-8.65 4.21-13.56 4.21-7.3 0-14.23-3.33-18.54-8.9-3-3.88-4.43-8.4-4.42-12.88h-1329.94v211.62z"/>
	</g>
</svg>