<svg version="1.2" xmlns="http://www.w3.org/2000/svg" viewBox="0 0 155 48" width="155" height="48">
	<style>
		tspan { white-space:pre } 
		.s0 { fill: #fef7ed } 
	</style>
	<g id="Layer 1">
		<g id="&lt;Group&gt;">
			<g id="&lt;Group&gt;">
				<path id="&lt;Path&gt;" class="s0" d="m47 24c0 12.98-10.52 23.5-23.5 23.5-12.98 0-23.5-10.52-23.5-23.5 0-12.98 10.52-23.5 23.5-23.5 12.98 0 23.5 10.52 23.5 23.5z"/>
				<path id="&lt;Path&gt;" class="s0" d="m101 24c0 12.98-10.52 23.5-23.5 23.5-12.98 0-23.5-10.52-23.5-23.5 0-12.98 10.52-23.5 23.5-23.5 12.98 0 23.5 10.52 23.5 23.5z"/>
				<path id="&lt;Path&gt;" class="s0" d="m155 24c0 12.98-10.52 23.5-23.5 23.5-12.98 0-23.5-10.52-23.5-23.5 0-12.98 10.52-23.5 23.5-23.5 12.98 0 23.5 10.52 23.5 23.5z"/>
			</g>
		</g>
	</g>
</svg>