<svg version="1.2" xmlns="http://www.w3.org/2000/svg" viewBox="0 0 48 51" width="48" height="51">
	<style>
		tspan { white-space:pre } 
		.s0 { fill: #f7edea } 
	</style>
	<g id="Layer 1">
		<path id="&lt;Path&gt;" class="s0" d="m1.2 26.4h5.23c0.73 0 0.93 1.02 0.24 1.3l-4.85 1.93c-0.35 0.14-0.51 0.52-0.38 0.87l1.53 3.85c0.14 0.35 0.53 0.51 0.88 0.38l6.04-2.4c0.67-0.27 1.23 0.58 0.72 1.09l-4.6 4.6c-0.26 0.26-0.26 0.69 0 0.95l2.93 2.93c0.27 0.26 0.69 0.26 0.95 0l13.85-13.85v21.61c0 0.28 0.23 0.5 0.51 0.5 0.28 0 0.51-0.22 0.51-0.5v-21.61l13.85 13.85c0.26 0.26 0.69 0.26 0.95 0l2.93-2.93c0.26-0.26 0.26-0.69 0-0.95l-3.69-3.7c-0.53-0.52 0.06-1.38 0.73-1.09l4.8 2.07c0.34 0.15 0.74-0.01 0.88-0.35l1.65-3.81c0.14-0.34-0.01-0.73-0.35-0.88l-5.97-2.57c-0.67-0.29-0.47-1.29 0.26-1.29h6.5c0.37 0 0.67-0.3 0.67-0.67v-4.14c0-0.37-0.3-0.67-0.67-0.67h-5.22c-0.74 0-0.94-1.02-0.25-1.3l4.85-1.93c0.35-0.14 0.52-0.53 0.38-0.87l-1.53-3.85c-0.14-0.35-0.53-0.51-0.87-0.38l-6.04 2.4c-0.68 0.27-1.24-0.58-0.73-1.09l4.6-4.6c0.26-0.26 0.26-0.69 0-0.95l-2.93-2.93c-0.26-0.26-0.69-0.26-0.95 0l-3.69 3.7c-0.53 0.52-1.39-0.07-1.09-0.74l2.06-4.8c0.15-0.34-0.01-0.74-0.35-0.88l-3.81-1.65c-0.34-0.14-0.73 0.02-0.88 0.36l-2.57 5.97c-0.29 0.66-1.29 0.46-1.29-0.27v-6.5c0-0.37-0.3-0.67-0.67-0.67h-2.07-2.07c-0.37 0-0.67 0.3-0.67 0.67v5.22c0 0.74-1.02 0.94-1.3 0.25l-1.93-4.85c-0.13-0.35-0.52-0.52-0.87-0.38l-3.85 1.53c-0.35 0.14-0.51 0.53-0.38 0.87l2.41 6.04c0.26 0.68-0.59 1.24-1.1 0.73l-4.6-4.6c-0.26-0.26-0.68-0.26-0.95 0l-2.93 2.93c-0.26 0.26-0.26 0.69 0 0.95l3.7 3.7c0.52 0.52-0.06 1.38-0.74 1.09l-4.8-2.07c-0.34-0.15-0.74 0.01-0.88 0.35l-1.64 3.81c-0.15 0.34 0.01 0.73 0.35 0.88l5.97 2.57c0.66 0.29 0.46 1.29-0.27 1.29h-6.5c-0.37 0-0.67 0.3-0.67 0.67v4.14c0 0.37 0.3 0.67 0.67 0.67z"/>
	</g>
</svg>