<svg viewBox="6.695417789757413 0 83.56873315363882 81.84" xmlns="http://www.w3.org/2000/svg" version="1.2" style="max-height: 500px" width="83.56873315363882" height="81.84">
	<style>
		tspan { white-space:pre } 
		.t0 { font-size: 38px;line-height: 40px;fill: #fef7ed;font-weight: 500;font-family: "Outfit-Medium", "Outfit" } 
		.s1 { fill: #fef7ed } 
	</style>
	<g id="Layer 1">
		<text style="transform: matrix(.5,0,0,.5,47.939,103.469)" id="Efecto&#xA;en minutos ​">
			<tspan class="t0" y="0" x="-55.3">Efecto
</tspan>
			<tspan class="t0" y="40" x="-95.1">en minutos ​
</tspan>
		</text>
		<g id="&lt;Group&gt;">
			<g id="min">
				<path d="m28.29 10.72c-7.02 4.49-12.31 11.52-14.76 19.5-6.2 20.21 6.17 41.25 26.69 45.73 14.77 3.22 29.34-3 37.69-15.35 0.78-1.15 1.24-2.75 2.94-2.62 1.45 0.12 2.31 1.72 1.7 3.03-0.44 0.96-1.55 2.48-2.19 3.37-12.49 17.14-36.15 21.69-54.14 10.23-19.07-12.15-24.26-38.1-11.25-56.73 2.85-4.09 6.48-7.56 10.58-10.38l-3.29-0.27c-2.79-0.38-2.63-3.96 0.07-4.2 3.41 0.42 6.89 0.47 10.29 0.87 1.48 0.18 2.31 1.07 2.08 2.6-1.44 3.09-2.67 6.4-4.17 9.45-0.31 0.62-0.51 1.12-1.17 1.43-1.52 0.7-3.14-0.44-2.99-2.11 0.47-1.57 1.32-3.02 1.92-4.55z" class="s1" id="&lt;Path&gt;"/>
				<path d="m74.05 11.11c1.43-0.25 2.15 0.68 3.02 1.61 0.49 0.51 1.41 1.46 1.78 2 1.15 1.7-0.22 3.76-2.25 3.29-0.87-0.21-1.46-1.26-2.04-1.89-1.02-1.07-2.69-2.12-1.93-3.85 0.22-0.49 0.88-1.07 1.42-1.16z" class="s1" id="&lt;Path&gt;"/>
				<path d="m42.8 0.59c0.77-0.06 1.4-0.08 2.01 0.46 1.24 1.09 0.74 3.17-0.87 3.57-1.38 0.34-2.97 0.37-4.36 0.77-2.42-0.11-2.9-3.37-0.55-4.12 0.94-0.3 2.77-0.6 3.77-0.68z" class="s1" id="&lt;Path&gt;"/>
				<path d="m82.84 53.14c-0.43-0.41-0.66-1.13-0.62-1.71 0.1-1.29 1.02-3.11 1.15-4.49 1.01-1.97 3.96-1.33 3.97 0.93 0 0.78-0.84 4.01-1.2 4.73-0.6 1.21-2.33 1.46-3.3 0.54z" class="s1" id="&lt;Path&gt;"/>
				<path d="m62.69 7.43c-1.5-1.58 0.12-4.21 2.46-3.31 0.78 0.31 3.35 1.63 3.92 2.15 0.96 0.87 0.85 2.61-0.26 3.29-1.45 0.9-2.46-0.16-3.7-0.81-0.63-0.33-1.97-0.85-2.42-1.32z" class="s1" id="&lt;Path&gt;"/>
				<path d="m81.46 21.26c1.44-0.25 2.02 0.43 2.6 1.58 0.4 0.78 1.52 3.15 1.56 3.93 0.1 1.66-1.87 2.77-3.24 1.83-0.78-0.52-1.24-2.16-1.63-3.04-0.49-1.14-1.3-1.97-0.63-3.28 0.22-0.44 0.85-0.94 1.34-1.02z" class="s1" id="&lt;Path&gt;"/>
				<path d="m85.62 33.18c2.22-0.08 2.27 2.59 2.38 4.17 0.09 1.25 0.36 2.73-0.82 3.55-1.26 0.88-3.1 0.05-3.25-1.48-0.12-1.14-0.23-2.48-0.3-3.63-0.08-1.33 0.48-2.55 1.99-2.61z" class="s1" id="&lt;Path&gt;"/>
				<path d="m57.45 1.71c1.5 1.47 0.23 3.72-1.93 3.52-1.35-0.13-2.74-0.6-4.11-0.7-1.6-0.53-1.85-2.88-0.4-3.73 0.72-0.42 1.27-0.3 2.05-0.22 1 0.1 3.72 0.47 4.39 1.13z" class="s1" id="&lt;Path&gt;"/>
			</g>
		</g>
	</g>
</svg>