<svg version="1.2" xmlns="http://www.w3.org/2000/svg" viewBox="0 0 42 42" width="42" height="42">
	<style>
		tspan { white-space:pre } 
		.s0 { fill: #005088 } 
		.s1 { fill: #4e82bc } 
		.s2 { fill: #1eb1bc } 
	</style>
	<g id="Layer 1">
		<g id="&lt;Group&gt;">
			<g id="&lt;Group&gt;">
				<path id="&lt;Path&gt;" class="s0" d="m18.45 25.58h5.14c1.1 0 1.99-0.89 1.99-1.99v-5.14c0-1.1-0.89-1.99-1.99-1.99h-5.14c-1.1 0-1.99 0.89-1.99 1.99v5.14c0 1.1 0.89 1.99 1.99 1.99z"/>
				<path id="&lt;Path&gt;" class="s1" d="m26.42 17.61h5.14c1.1 0 1.99-0.89 1.99-1.99v-5.14c0-1.1-0.89-1.99-1.99-1.99h-5.14c-1.1 0-1.99 0.89-1.99 1.99v5.14c0 1.1 0.89 1.99 1.99 1.99z"/>
				<path id="&lt;Path&gt;" class="s0" d="m41.49 18.26c0-0.99-0.81-1.8-1.8-1.8h-4.67c-0.99 0-1.8 0.81-1.8 1.8v4.67q0 0.23 0.06 0.45v5.87c0 2.27-1.83 4.1-4.1 4.1h-6.94-6.9-2.55c-2.26 0-4.1-1.83-4.1-4.1v-0.04-12.25-4.1c0-2.27 1.84-4.1 4.1-4.1h5.38q0.24 0.07 0.49 0.07h4.66c1 0 1.8-0.81 1.8-1.8v-4.66c0-1-0.8-1.8-1.8-1.8h-2.44-2.22-5.87c-6.79 0-12.29 5.5-12.29 12.29v4.1 12.25 0.04c0 6.79 5.5 12.29 12.29 12.29h2.55 6.9 6.94c6.79 0 12.3-5.5 12.3-12.29v-6.13q0.01-0.1 0.01-0.19z"/>
				<path id="&lt;Path&gt;" class="s2" d="m34.37 9.66h5.14c1.1 0 1.99-0.89 1.99-1.98v-5.15c0-1.1-0.89-1.99-1.99-1.99h-5.14c-1.1 0-1.99 0.89-1.99 1.99v5.15c0 1.09 0.89 1.98 1.99 1.98z"/>
			</g>
		</g>
	</g>
</svg>